<svg width="41" height="27" viewBox="0 0 41 27" fill="none" xmlns="http://www.w3.org/2000/svg">
<path fill-rule="evenodd" clip-rule="evenodd" d="M20.5 22.5013C23.2542 22.5013 27 19.7043 27 19.7043C27 19.7043 30.8231 20.3792 31.4474 22.3265V24.7737L31.4484 24.7757C31.781 25.416 32.108 26.0456 32.8158 25.9974C33.4756 25.9524 34.0132 24.7737 34.0132 24.7737C34.0132 24.7737 34.1774 23.2673 34.0132 22.3265C33.8237 21.2407 33.5692 20.6329 32.9868 19.7043C31.9054 17.9801 28.8816 16.5578 28.8816 16.5578C28.8816 16.5578 29.2104 15.6144 29.2237 14.9855C29.2383 14.2891 28.8816 13.2365 28.8816 13.2365L32.3026 11.6632H33.8421C34.328 11.4689 34.5873 11.2384 34.8684 10.7892C35.0961 10.4255 35.2105 9.74035 35.2105 9.74035V6.41902C35.2105 6.41902 35.081 5.93429 34.8684 5.71979C34.6124 5.4615 34.0132 5.37017 34.0132 5.37017V3.79691H37.7763C37.7763 3.79691 40 3.87372 40 2.92288C40 1.97204 37.7763 2.04884 37.7763 2.04884H34.0132C34.0132 2.04884 33.6796 1 33.1579 1C32.6362 1 32.3026 2.04884 32.3026 2.04884H28.8816C28.8816 2.04884 26.3158 1.84349 26.3158 2.92288C26.3158 4.00226 28.8816 3.79691 28.8816 3.79691H32.1316V5.37017C32.1316 5.37017 31.3548 5.37139 31.1053 5.71979C30.9426 5.94692 30.9342 6.41902 30.9342 6.41902V8.69151L27 10.09C27 10.09 23.2808 7.11824 20.5 7.11824C17.7192 7.11824 14 10.09 14 10.09L10.0658 8.69151V6.41902C10.0658 6.41902 10.0574 5.94692 9.89474 5.71979C9.6452 5.37139 8.86842 5.37017 8.86842 5.37017V3.79691H12.1184C12.1184 3.79691 14.6842 4.00226 14.6842 2.92288C14.6842 1.84349 12.1184 2.04884 12.1184 2.04884H8.69737C8.69737 2.04884 8.36383 1 7.84211 1C7.32038 1 6.98684 2.04884 6.98684 2.04884H3.22368C3.22368 2.04884 1 1.97204 1 2.92288C1 3.87372 3.22368 3.79691 3.22368 3.79691H6.98684V5.37017C6.98684 5.37017 6.38756 5.4615 6.13158 5.71979C5.919 5.93429 5.78947 6.41902 5.78947 6.41902V9.74035C5.78947 9.74035 5.90395 10.4255 6.13158 10.7892C6.41269 11.2384 6.67204 11.4689 7.15789 11.6632H8.69737L12.1184 13.2365C12.1184 13.2365 11.7617 14.2891 11.7763 14.9855C11.7896 15.6144 12.1184 16.5578 12.1184 16.5578C12.1184 16.5578 9.09456 17.9801 8.01316 19.7043C7.4308 20.6329 7.17632 21.2407 6.98684 22.3265C6.82265 23.2673 6.98684 24.7737 6.98684 24.7737C6.98684 24.7737 7.52439 25.9524 8.18421 25.9974C8.89202 26.0456 9.21904 25.416 9.55162 24.7757L9.55263 24.7737V22.3265C10.1769 20.3792 14 19.7043 14 19.7043C14 19.7043 17.7458 22.5013 20.5 22.5013ZM20.3289 10.4406C17.309 10.5163 14 14.9855 14 14.9855C14 14.9855 17.309 19.4548 20.3289 19.5305C23.4591 19.609 27 14.9855 27 14.9855C27 14.9855 23.4591 10.3621 20.3289 10.4406Z" fill="#F9FAFF"/>
<path d="M20.3289 12.1887C21.8397 12.1389 23.1145 13.4417 23.0658 14.9855C23.0201 16.433 21.9163 17.561 20.5 17.6077C19.0357 17.656 17.8104 16.482 17.7632 14.9855C17.7159 13.4891 18.8647 12.2369 20.3289 12.1887Z" fill="#F9FAFF"/>
<path d="M31.4474 24.7737V22.3265C30.8231 20.3792 27 19.7043 27 19.7043C27 19.7043 23.2542 22.5013 20.5 22.5013C17.7458 22.5013 14 19.7043 14 19.7043C14 19.7043 10.1769 20.3792 9.55263 22.3265V24.7737M31.4474 24.7737L31.4484 24.7757M31.4474 24.7737C31.4477 24.7744 31.448 24.775 31.4484 24.7757M9.55263 24.7737L9.55162 24.7757M9.55263 24.7737C9.5523 24.7744 9.55196 24.775 9.55162 24.7757M31.4484 24.7757C31.781 25.416 32.108 26.0456 32.8158 25.9974C33.4756 25.9524 34.0132 24.7737 34.0132 24.7737C34.0132 24.7737 34.1774 23.2673 34.0132 22.3265C33.8237 21.2407 33.5692 20.6329 32.9868 19.7043C31.9054 17.9801 28.8816 16.5578 28.8816 16.5578C28.8816 16.5578 29.2104 15.6144 29.2237 14.9855C29.2383 14.2891 28.8816 13.2365 28.8816 13.2365L32.3026 11.6632H33.8421C34.328 11.4689 34.5873 11.2384 34.8684 10.7892C35.0961 10.4255 35.2105 9.74035 35.2105 9.74035V6.41902C35.2105 6.41902 35.081 5.93429 34.8684 5.71979C34.6124 5.4615 34.0132 5.37017 34.0132 5.37017V3.79691H37.7763C37.7763 3.79691 40 3.87372 40 2.92288C40 1.97204 37.7763 2.04884 37.7763 2.04884H34.0132C34.0132 2.04884 33.6796 1 33.1579 1C32.6362 1 32.3026 2.04884 32.3026 2.04884H28.8816C28.8816 2.04884 26.3158 1.84349 26.3158 2.92288C26.3158 4.00226 28.8816 3.79691 28.8816 3.79691H32.1316V5.37017C32.1316 5.37017 31.3548 5.37139 31.1053 5.71979C30.9426 5.94692 30.9342 6.41902 30.9342 6.41902V8.69151L27 10.09C27 10.09 23.2808 7.11824 20.5 7.11824C17.7192 7.11824 14 10.09 14 10.09L10.0658 8.69151V6.41902C10.0658 6.41902 10.0574 5.94692 9.89474 5.71979C9.6452 5.37139 8.86842 5.37017 8.86842 5.37017V3.79691H12.1184C12.1184 3.79691 14.6842 4.00226 14.6842 2.92288C14.6842 1.84349 12.1184 2.04884 12.1184 2.04884H8.69737C8.69737 2.04884 8.36383 1 7.84211 1C7.32038 1 6.98684 2.04884 6.98684 2.04884H3.22368C3.22368 2.04884 1 1.97204 1 2.92288C1 3.87372 3.22368 3.79691 3.22368 3.79691H6.98684V5.37017C6.98684 5.37017 6.38756 5.4615 6.13158 5.71979C5.919 5.93429 5.78947 6.41902 5.78947 6.41902V9.74035C5.78947 9.74035 5.90395 10.4255 6.13158 10.7892C6.41269 11.2384 6.67204 11.4689 7.15789 11.6632H8.69737L12.1184 13.2365C12.1184 13.2365 11.7617 14.2891 11.7763 14.9855C11.7896 15.6144 12.1184 16.5578 12.1184 16.5578C12.1184 16.5578 9.09456 17.9801 8.01316 19.7043C7.4308 20.6329 7.17632 21.2407 6.98684 22.3265C6.82265 23.2673 6.98684 24.7737 6.98684 24.7737C6.98684 24.7737 7.52439 25.9524 8.18421 25.9974C8.89202 26.0456 9.21904 25.416 9.55162 24.7757M14 14.9855C14 14.9855 17.309 10.5163 20.3289 10.4406C23.4591 10.3621 27 14.9855 27 14.9855C27 14.9855 23.4591 19.609 20.3289 19.5305C17.309 19.4548 14 14.9855 14 14.9855ZM20.3289 12.1887C21.8397 12.1389 23.1145 13.4417 23.0658 14.9855C23.0201 16.433 21.9163 17.561 20.5 17.6077C19.0357 17.656 17.8104 16.482 17.7632 14.9855C17.7159 13.4891 18.8647 12.2369 20.3289 12.1887Z" stroke="#2F44AC"/>
</svg>
